<svg width="24" height="24" viewBox="0 0 24 24" fill="none" xmlns="http://www.w3.org/2000/svg">
<path d="M2.99634 7.99838H13.0005" stroke="#A5B4FC" stroke-width="1.5" stroke-linecap="round" stroke-linejoin="round"/>
<path d="M21.0038 3.99667H2.99634" stroke="#A5B4FC" stroke-width="1.5" stroke-linecap="round" stroke-linejoin="round"/>
<path d="M2.99634 12H8.99884" stroke="#A5B4FC" stroke-width="1.5" stroke-linecap="round" stroke-linejoin="round"/>
<path d="M2.99634 16.0017H7.99842" stroke="#A5B4FC" stroke-width="1.5" stroke-linecap="round" stroke-linejoin="round"/>
<path d="M2.99634 7.99838H13.0005" stroke="#A5B4FC" stroke-width="1.5" stroke-linecap="round" stroke-linejoin="round"/>
<path d="M21.0038 3.99667H2.99634" stroke="#A5B4FC" stroke-width="1.5" stroke-linecap="round" stroke-linejoin="round"/>
<path d="M2.99634 12H8.99884" stroke="#A5B4FC" stroke-width="1.5" stroke-linecap="round" stroke-linejoin="round"/>
<path d="M2.99634 16.0017H7.99842" stroke="#A5B4FC" stroke-width="1.5" stroke-linecap="round" stroke-linejoin="round"/>
<path d="M21.0038 20.0034H2.99634" stroke="#A5B4FC" stroke-width="1.5" stroke-linecap="round" stroke-linejoin="round"/>
<path d="M17.0022 16.0017C17.002 13.7917 15.2105 12.0002 13.0005 12C15.2105 12.0002 17.002 13.7917 17.0022 16.0017" stroke="#5E548E" stroke-width="1.5" stroke-linecap="round" stroke-linejoin="round"/>
<path d="M17.0022 7.99829C17.0023 10.2083 18.7938 11.9998 21.0038 12C18.7938 12.0001 17.0023 13.7916 17.0022 16.0016C17.0023 13.7916 18.7938 12.0001 21.0038 12C18.7938 11.9998 17.0023 10.2083 17.0022 7.99829C17.002 10.2083 15.2105 11.9998 13.0005 12C15.2105 11.9998 17.002 10.2083 17.0022 7.99829" stroke="#5E548E" stroke-width="1.5" stroke-linecap="round" stroke-linejoin="round"/>
</svg>
