<svg width="120" height="120" viewBox="0 0 120 120" fill="none" xmlns="http://www.w3.org/2000/svg">
<path fill-rule="evenodd" clip-rule="evenodd" d="M48.6428 39.4175L38.6614 29.436C35.3542 26.1289 35.3542 20.7669 38.6614 17.4597V17.4597C41.9691 14.1559 47.3284 14.1575 50.6342 17.4633L60.6156 27.4447L48.6428 39.4175Z" stroke="#5E548E" stroke-width="1.5" stroke-linecap="round" stroke-linejoin="round"/>
<path fill-rule="evenodd" clip-rule="evenodd" d="M75.673 26.532L93.4642 44.3232C97.371 48.23 97.371 54.5643 93.4642 58.4712L72.0016 79.9337C70.0482 81.8872 66.881 81.8872 64.9276 79.9337L40.0624 55.0686C38.109 53.1152 38.109 49.948 40.0624 47.9946L61.525 26.532C63.4011 24.6559 65.9457 23.6019 68.599 23.6019C71.2523 23.6019 73.7969 24.6559 75.673 26.532Z" stroke="#5E548E" stroke-width="1.5" stroke-linecap="round" stroke-linejoin="round"/>
<path fill-rule="evenodd" clip-rule="evenodd" d="M90.561 81.3461L80.5796 71.3646L92.5559 59.3883L102.537 69.3698C105.845 72.6769 105.845 78.0389 102.537 81.3461V81.3461C99.2302 84.6532 93.8682 84.6532 90.561 81.3461Z" stroke="#5E548E" stroke-width="1.5" stroke-linecap="round" stroke-linejoin="round"/>
<path fill-rule="evenodd" clip-rule="evenodd" d="M42.5159 57.5188L62.4787 77.4817L53.5089 86.4515C52.5708 87.3896 51.2985 87.9166 49.9719 87.9166C48.6452 87.9166 47.3729 87.3896 46.4349 86.4515L33.546 73.5627C31.5926 71.6092 31.5926 68.4421 33.546 66.4886L42.5159 57.5188Z" stroke="#5E548E" stroke-width="1.5" stroke-linecap="round" stroke-linejoin="round"/>
<path d="M34.6444 74.6611L18.0925 91.213C17.3037 91.9995 16.7658 93.0021 16.5468 94.0942L15.0462 101.642C14.863 102.567 15.1533 103.523 15.8201 104.19C16.487 104.857 17.4425 105.147 18.3676 104.964L25.9157 103.463C27.0078 103.244 28.0105 102.706 28.7969 101.917L45.3488 85.3656" stroke="#5E548E" stroke-width="1.5" stroke-linecap="round" stroke-linejoin="round"/>
<path d="M67.5481 40.4771L57.5439 50.4812" stroke="#5E548E" stroke-width="1.5" stroke-linecap="round" stroke-linejoin="round"/>
<path d="M79.5231 52.4519L69.5189 62.4561" stroke="#5E548E" stroke-width="1.5" stroke-linecap="round" stroke-linejoin="round"/>
</svg>
