<svg width="20" height="20" viewBox="0 0 20 20" fill="none" xmlns="http://www.w3.org/2000/svg">
<path d="M7.66677 4.55556H6.11122C5.25211 4.55556 4.55566 5.252 4.55566 6.11111V15.4444C4.55566 16.3036 5.25211 17 6.11122 17H13.889C14.7481 17 15.4446 16.3036 15.4446 15.4444V6.11111C15.4446 5.252 14.7481 4.55556 13.889 4.55556H12.3334M7.66677 4.55556C7.66677 5.41467 8.36322 6.11111 9.22233 6.11111H10.7779C11.637 6.11111 12.3334 5.41467 12.3334 4.55556M7.66677 4.55556C7.66677 3.69645 8.36322 3 9.22233 3H10.7779C11.637 3 12.3334 3.69645 12.3334 4.55556M10.0001 10H12.3334M10.0001 13.1111H12.3334M7.66677 10H7.67455M7.66677 13.1111H7.67455" stroke="#171717" stroke-width="1.67" stroke-linecap="round"/>
</svg>
