<svg width="101" height="100" viewBox="0 0 101 100" fill="none" xmlns="http://www.w3.org/2000/svg">
<path fill-rule="evenodd" clip-rule="evenodd" d="M92.1667 27.0833C92.1667 22.481 88.4357 18.75 83.8333 18.75H75.5C74.4128 18.7959 73.4795 19.5384 73.1905 20.5875C72.3412 24.1017 69.196 26.5774 65.5806 26.5773C61.9653 26.5772 58.8201 24.1015 57.971 20.5872C57.682 19.5382 56.7488 18.7959 55.6617 18.75H17.1667C12.5643 18.75 8.83334 22.481 8.83334 27.0833V72.9167C8.83334 77.519 12.5643 81.25 17.1667 81.25H55.6617C56.7488 81.2042 57.6819 80.4618 57.971 79.4129C58.8201 75.8986 61.9653 73.4228 65.5806 73.4228C69.196 73.4227 72.3412 75.8983 73.1905 79.4126C73.4795 80.4617 74.4128 81.2041 75.5 81.25H83.8333C88.4357 81.25 92.1667 77.519 92.1667 72.9167V27.0833Z" stroke="#A3A3A3" stroke-width="2.5" stroke-linecap="round" stroke-linejoin="round"/>
<path d="M25.5 54.1667L29.2083 50.1084L25.5 45.8334" stroke="#383255" stroke-width="2.5" stroke-linecap="round" stroke-linejoin="round"/>
<path d="M33.8333 60.4167L42.4653 50.0903L33.8333 39.5834" stroke="#383255" stroke-width="2.5" stroke-linecap="round" stroke-linejoin="round"/>
<path d="M29.2083 50.125L50.5 50" stroke="#383255" stroke-width="2.5" stroke-linecap="round" stroke-linejoin="round"/>
<path d="M65.0832 63.5416V61.4583" stroke="#383255" stroke-width="2.5" stroke-linecap="round" stroke-linejoin="round"/>
<path d="M65.0832 51.0416V48.9583" stroke="#383255" stroke-width="2.5" stroke-linecap="round" stroke-linejoin="round"/>
<path d="M65.0832 38.5416V36.4583" stroke="#383255" stroke-width="2.5" stroke-linecap="round" stroke-linejoin="round"/>
</svg>
