<svg width="101" height="100" viewBox="0 0 101 100" fill="none" xmlns="http://www.w3.org/2000/svg">
<path fill-rule="evenodd" clip-rule="evenodd" d="M21.3333 87.5H79.6667C84.269 87.5 88 83.769 88 79.1667V52.0948C88.0001 49.7161 86.6499 47.5437 84.5171 46.4906C82.3842 45.4375 79.8385 45.6863 77.95 47.1325L55.5662 64.2727C52.5765 66.562 48.4231 66.562 45.4334 64.2727L23.05 47.1325C21.1615 45.6863 18.6158 45.4375 16.4829 46.4906C14.3501 47.5437 12.9999 49.7161 13 52.0948V79.1667C13 83.769 16.731 87.5 21.3333 87.5Z" stroke="#A3A3A3" stroke-width="2.5" stroke-linecap="round" stroke-linejoin="round"/>
<path d="M38 41.6667H63" stroke="#383255" stroke-width="2.5" stroke-linecap="round" stroke-linejoin="round"/>
<path d="M38 29.1667H50.5" stroke="#383255" stroke-width="2.5" stroke-linecap="round" stroke-linejoin="round"/>
<path d="M79.6666 46.1925V20.8333C79.6666 16.231 75.9357 12.5 71.3333 12.5H29.6666C25.0643 12.5 21.3333 16.231 21.3333 20.8333V46.1925" stroke="#A3A3A3" stroke-width="2.5" stroke-linecap="round" stroke-linejoin="round"/>
</svg>
