<svg width="20" height="20" viewBox="0 0 20 20" fill="none" xmlns="http://www.w3.org/2000/svg">
<path d="M9.22222 5.2417V15.6313C9.22222 16.3872 8.60941 17 7.85347 17C7.27502 17 6.75902 16.6364 6.56446 16.0916L4.89503 11.3089M14.6667 10.7778C15.9553 10.7778 17 9.73311 17 8.44444C17 7.15578 15.9553 6.11111 14.6667 6.11111M4.89503 11.3089C3.78112 10.8354 3 9.73114 3 8.44444C3 6.72622 4.39289 5.33333 6.11111 5.33333H7.53607C10.7255 5.33333 13.4665 4.37348 14.6667 3L14.6667 13.8889C13.4665 12.5154 10.7255 11.5556 7.53607 11.5556L6.11109 11.5555C5.67958 11.5555 5.2686 11.4677 4.89503 11.3089Z" stroke="#262626" stroke-width="1.67" stroke-linecap="round" stroke-linejoin="round"/>
</svg>
