<svg width="25" height="24" viewBox="0 0 25 24" fill="none" xmlns="http://www.w3.org/2000/svg">
<path fill-rule="evenodd" clip-rule="evenodd" d="M6.49752 2.99622C6.49752 5.20628 4.70591 6.99788 2.49585 6.99788C4.70591 6.99788 6.49752 8.78949 6.49752 10.9995C6.49752 8.78949 8.28912 6.99788 10.4992 6.99788C8.28912 6.99788 6.49752 5.20628 6.49752 2.99622Z" stroke="#A3A3A3" stroke-width="1.5" stroke-linecap="round" stroke-linejoin="round"/>
<path fill-rule="evenodd" clip-rule="evenodd" d="M17.5021 15.0012C17.5021 12.2387 15.2626 9.99915 12.5 9.99915C15.2626 9.99915 17.5021 7.75964 17.5021 4.99707C17.5021 7.75964 19.7416 9.99915 22.5042 9.99915C19.7416 9.99915 17.5021 12.2387 17.5021 15.0012Z" stroke="#A3A3A3" stroke-width="1.5" stroke-linecap="round" stroke-linejoin="round"/>
<path d="M17.5022 15.0012V16.0016" stroke="#A3A3A3" stroke-width="1.5" stroke-linecap="round" stroke-linejoin="round"/>
<path d="M17.5022 4.99712V3.9967" stroke="#A3A3A3" stroke-width="1.5" stroke-linecap="round" stroke-linejoin="round"/>
<path d="M10.4992 21.0038V22.0042" stroke="#A3A3A3" stroke-width="1.5" stroke-linecap="round" stroke-linejoin="round"/>
<path d="M10.4992 14.0008V13.0004" stroke="#A3A3A3" stroke-width="1.5" stroke-linecap="round" stroke-linejoin="round"/>
<path d="M6.49752 10.9996V12.0001" stroke="#A3A3A3" stroke-width="1.5" stroke-linecap="round" stroke-linejoin="round"/>
<path d="M6.49752 1.99585V2.99627" stroke="#A3A3A3" stroke-width="1.5" stroke-linecap="round" stroke-linejoin="round"/>
<path fill-rule="evenodd" clip-rule="evenodd" d="M10.4992 13.5006C10.4992 15.7107 8.70762 17.5023 6.49756 17.5023C8.70762 17.5023 10.4992 19.2939 10.4992 21.5039C10.4992 19.2939 12.2908 17.5023 14.5009 17.5023C12.2908 17.5023 10.4992 15.7107 10.4992 13.5006Z" stroke="#A3A3A3" stroke-width="1.5" stroke-linecap="round" stroke-linejoin="round"/>
</svg>
