<svg width="45" height="16" viewBox="0 0 45 16" fill="none" xmlns="http://www.w3.org/2000/svg">
<path d="M38.8333 12.5C38.8333 11.0272 40.0272 9.83333 41.5 9.83333C42.9728 9.83333 44.1667 11.0272 44.1667 12.5C44.1667 13.9728 42.9728 15.1667 41.5 15.1667C40.0272 15.1667 38.8333 13.9728 38.8333 12.5ZM37.5161 6.32111L37.4267 6.81305L37.5161 6.32111ZM32.5309 4.89683L32.1362 5.2038L32.5309 4.89683ZM33.7518 5.63669L33.6624 6.12863L33.7518 5.63669ZM28.5474 5.08257L28.0605 4.96896L28.5474 5.08257ZM27.3233 10.3289L27.8102 10.4425L27.3233 10.3289ZM23.3626 10.2856L23.8166 10.0761L23.3626 10.2856ZM16.1248 8.52105L16.5044 8.84644L16.1248 8.52105ZM18.2758 7.92526L18.1177 8.3996L18.2758 7.92526ZM12.5724 8.62058L12.1436 8.87783L12.5724 8.62058ZM15.8059 8.89318L16.1855 9.21857L15.8059 8.89318ZM7.71302 4.92958L7.40067 4.53915L7.71302 4.92958ZM1.44024 0.76295L3.803 5.15094L2.92253 5.62504L0.559764 1.23705L1.44024 0.76295ZM6.06075 5.61109L7.40067 4.53915L8.02537 5.32002L6.68544 6.39196L6.06075 5.61109ZM11.1061 5.20508L13.0011 8.36334L12.1436 8.87783L10.2487 5.71958L11.1061 5.20508ZM15.4262 8.56778L15.7452 8.19565L16.5044 8.84644L16.1855 9.21857L15.4262 8.56778ZM18.4339 7.45092L22.3372 8.75204L22.021 9.70072L18.1177 8.3996L18.4339 7.45092ZM23.8166 10.0761L24.0136 10.503L23.1057 10.9221L22.9086 10.4952L23.8166 10.0761ZM26.8363 10.2153L28.0605 4.96896L29.0343 5.19619L27.8102 10.4425L26.8363 10.2153ZM32.4685 4.00218L32.9255 4.58986L32.1362 5.2038L31.6791 4.61612L32.4685 4.00218ZM33.8412 5.14476L37.6056 5.82918L37.4267 6.81305L33.6624 6.12863L33.8412 5.14476ZM39.3944 7.17082L41.9472 12.2764L41.0528 12.7236L38.5 7.61803L39.3944 7.17082ZM37.6056 5.82918C38.3798 5.96994 39.0425 6.467 39.3944 7.17082L38.5 7.61803C38.2889 7.19574 37.8912 6.89751 37.4267 6.81305L37.6056 5.82918ZM32.9255 4.58986C33.1521 4.88118 33.4781 5.07874 33.8412 5.14476L33.6624 6.12863C33.0572 6.0186 32.5138 5.68933 32.1362 5.2038L32.9255 4.58986ZM28.0605 4.96896C28.5383 2.92098 31.1773 2.34218 32.4685 4.00218L31.6791 4.61612C30.9044 3.62012 29.321 3.9674 29.0343 5.19619L28.0605 4.96896ZM24.0136 10.503C24.612 11.7994 26.5119 11.6057 26.8363 10.2153L27.8102 10.4425C27.2694 12.7599 24.1029 13.0827 23.1057 10.9221L24.0136 10.503ZM22.3372 8.75204C22.992 8.97028 23.5274 9.44947 23.8166 10.0761L22.9086 10.4952C22.7351 10.1192 22.4139 9.83167 22.021 9.70072L22.3372 8.75204ZM15.7452 8.19565C16.4067 7.4239 17.4696 7.12949 18.4339 7.45092L18.1177 8.3996C17.5391 8.20674 16.9013 8.38339 16.5044 8.84644L15.7452 8.19565ZM13.0011 8.36334C13.5279 9.24127 14.7599 9.34513 15.4262 8.56778L16.1855 9.21857C15.075 10.5142 13.0215 10.3411 12.1436 8.87783L13.0011 8.36334ZM7.40067 4.53915C8.58271 3.59352 10.3273 3.90705 11.1061 5.20508L10.2487 5.71958C9.78136 4.94076 8.73459 4.75264 8.02537 5.32002L7.40067 4.53915ZM3.803 5.15094C4.24696 5.97544 5.32951 6.19608 6.06075 5.61109L6.68544 6.39196C5.46672 7.36693 3.66247 6.99921 2.92253 5.62504L3.803 5.15094Z" fill="#DC2626"/>
</svg>
