<svg width="45" height="16" viewBox="0 0 45 16" fill="none" xmlns="http://www.w3.org/2000/svg">
<path d="M38.8333 3.5C38.8333 4.97276 40.0272 6.16667 41.5 6.16667C42.9728 6.16667 44.1667 4.97276 44.1667 3.5C44.1667 2.02724 42.9728 0.833333 41.5 0.833333C40.0272 0.833333 38.8333 2.02724 38.8333 3.5ZM37.5161 9.67889L37.4267 9.18695L37.5161 9.67889ZM32.5309 11.1032L32.1362 10.7962L32.5309 11.1032ZM33.7518 10.3633L33.6624 9.87137L33.7518 10.3633ZM28.5474 10.9174L28.0605 11.031L28.5474 10.9174ZM27.3233 5.67108L27.8102 5.55747L27.3233 5.67108ZM23.3626 5.71437L23.8166 5.9239L23.3626 5.71437ZM16.1248 7.47895L16.5044 7.15356L16.1248 7.47895ZM18.2758 8.07474L18.1177 7.6004L18.2758 8.07474ZM12.5724 7.37942L12.1436 7.12217L12.5724 7.37942ZM15.8059 7.10682L16.1855 6.78143L15.8059 7.10682ZM7.71302 11.0704L7.40067 11.4609L7.71302 11.0704ZM1.44024 15.2371L3.803 10.8491L2.92253 10.375L0.559764 14.7629L1.44024 15.2371ZM6.06075 10.3889L7.40067 11.4609L8.02537 10.68L6.68544 9.60804L6.06075 10.3889ZM11.1061 10.7949L13.0011 7.63666L12.1436 7.12217L10.2487 10.2804L11.1061 10.7949ZM15.4262 7.43222L15.7452 7.80435L16.5044 7.15356L16.1855 6.78143L15.4262 7.43222ZM18.4339 8.54908L22.3372 7.24796L22.021 6.29928L18.1177 7.6004L18.4339 8.54908ZM23.8166 5.9239L24.0136 5.49695L23.1057 5.0779L22.9086 5.50484L23.8166 5.9239ZM26.8363 5.7847L28.0605 11.031L29.0343 10.8038L27.8102 5.55747L26.8363 5.7847ZM32.4685 11.9978L32.9255 11.4101L32.1362 10.7962L31.6791 11.3839L32.4685 11.9978ZM33.8412 10.8552L37.6056 10.1708L37.4267 9.18695L33.6624 9.87137L33.8412 10.8552ZM39.3944 8.82918L41.9472 3.72361L41.0528 3.27639L38.5 8.38197L39.3944 8.82918ZM37.6056 10.1708C38.3798 10.0301 39.0425 9.533 39.3944 8.82918L38.5 8.38197C38.2889 8.80426 37.8912 9.10249 37.4267 9.18695L37.6056 10.1708ZM32.9255 11.4101C33.1521 11.1188 33.4781 10.9213 33.8412 10.8552L33.6624 9.87137C33.0572 9.9814 32.5138 10.3107 32.1362 10.7962L32.9255 11.4101ZM28.0605 11.031C28.5383 13.079 31.1773 13.6578 32.4685 11.9978L31.6791 11.3839C30.9044 12.3799 29.321 12.0326 29.0343 10.8038L28.0605 11.031ZM24.0136 5.49695C24.612 4.20058 26.5119 4.39426 26.8363 5.7847L27.8102 5.55747C27.2694 3.24008 24.1029 2.91728 23.1057 5.0779L24.0136 5.49695ZM22.3372 7.24796C22.992 7.02972 23.5274 6.55053 23.8166 5.9239L22.9086 5.50484C22.7351 5.88082 22.4139 6.16833 22.021 6.29928L22.3372 7.24796ZM15.7452 7.80435C16.4067 8.5761 17.4696 8.87051 18.4339 8.54908L18.1177 7.6004C17.5391 7.79326 16.9013 7.61661 16.5044 7.15356L15.7452 7.80435ZM13.0011 7.63666C13.5279 6.75873 14.7599 6.65487 15.4262 7.43222L16.1855 6.78143C15.075 5.48584 13.0215 5.65895 12.1436 7.12217L13.0011 7.63666ZM7.40067 11.4609C8.58271 12.4065 10.3273 12.093 11.1061 10.7949L10.2487 10.2804C9.78136 11.0592 8.73459 11.2474 8.02537 10.68L7.40067 11.4609ZM3.803 10.8491C4.24696 10.0246 5.32951 9.80392 6.06075 10.3889L6.68544 9.60804C5.46672 8.63307 3.66247 9.00079 2.92253 10.375L3.803 10.8491Z" fill="#22C55E"/>
</svg>
