<svg xmlns="http://www.w3.org/2000/svg" width="140" height="36" viewBox="0 0 140 36" fill="none">
  <path d="M50.9354 28.9844L42.1018 4.66738H45.5596L49.8154 16.7909C51.0754 20.3608 52.3354 23.9586 52.8533 26.1845H52.9233C53.4413 24.1966 54.8133 20.4168 56.1012 16.8889L60.567 4.65338H63.8849L54.7433 28.9844H50.9354Z" fill="#231942"/>
  <path d="M76.5544 25.1065C76.5544 26.7445 76.6944 28.4664 76.7924 28.9844H73.8525C73.7125 28.6064 73.6145 27.7664 73.5725 26.6745C72.9425 27.8224 71.5146 29.4044 68.0847 29.4044C63.8989 29.4044 62.1069 26.6745 62.1069 23.9866C62.1069 20.0387 65.2148 18.2188 70.4926 18.2188H73.5025V16.7209C73.5025 15.1529 73.0125 13.263 69.6946 13.263C66.7548 13.263 66.2368 14.7329 65.9148 16.0909H62.9469C63.1849 13.641 64.6968 10.8551 69.7926 10.8551C74.1185 10.8551 76.5404 12.633 76.5404 16.6509V25.1065H76.5544ZM73.5585 20.3607H70.6886C67.1607 20.3607 65.2708 21.3407 65.2708 23.8186C65.2708 25.6665 66.5308 26.9965 68.7287 26.9965C72.9845 26.9965 73.5445 24.1266 73.5445 20.9207V20.3607H73.5585Z" fill="#231942"/>
  <path d="M94.0956 23.8187C94.0956 25.5686 94.1236 27.9485 94.1236 28.9845H91.1557C91.0857 28.5365 91.0577 27.4445 91.0157 26.3246C90.1477 28.2845 88.4678 29.4045 85.6679 29.4045C82.658 29.4045 79.8021 27.9065 79.8021 22.9087V11.2752H82.84V22.2787C82.84 24.5886 83.568 26.7446 86.5079 26.7446C89.7558 26.7446 91.0157 24.9246 91.0157 20.4868V11.2612H94.0956V23.8187Z" fill="#231942"/>
  <path d="M97.5535 28.9845V3.33746H100.633V28.9845H97.5535Z" fill="#231942"/>
  <path d="M103.713 11.2752H106.793V6.03937H109.831V11.2752H113.751V13.7531H109.831V24.1267C109.831 25.8766 110.251 26.7446 111.861 26.7446C112.281 26.7446 112.911 26.7166 113.401 26.6046V28.9145C112.673 29.1945 111.623 29.2225 110.741 29.2225C107.983 29.2225 106.793 27.7945 106.793 24.8546V13.7391H103.713V11.2752Z" fill="#231942"/>
  <path d="M116.985 7.15935V3.3515H120.065V7.15935H116.985ZM116.985 11.2752H120.065V28.9845H116.985V11.2752Z" fill="#231942"/>
  <path d="M127.806 19.7309C129.276 17.9809 133.182 13.8931 135.562 11.2752H139.23L132.552 18.1629L140 28.9985H136.402L130.466 20.1648L127.806 22.7127V28.9985H124.727V3.3515H127.806V19.7309Z" fill="#231942"/>
  <path d="M11.513 16.7769L0.0334906 21.5087C0.0054917 21.5227 -0.00850732 21.5507 0.00549213 21.5787L0.215484 22.3066C0.411476 23.0066 0.649467 23.7066 0.929456 24.3786C1.20944 25.0505 1.53143 25.7085 1.88142 26.3385L2.2594 26.9965C2.2734 27.0105 2.2874 27.0245 2.3014 27.0245H2.3154L13.781 22.2926C13.7949 22.2926 13.809 22.2786 13.809 22.2646C13.809 22.2506 13.809 22.2366 13.809 22.2226L11.569 16.8049C11.569 16.7769 11.541 16.7769 11.513 16.7769Z" fill="#231942"/>
  <path d="M22.3485 21.3687C22.3345 21.3407 22.3065 21.3267 22.2785 21.3407L16.8607 23.5806C16.8467 23.5806 16.8327 23.5946 16.8327 23.6086C16.8327 23.6226 16.8327 23.6366 16.8327 23.6506L21.5226 34.9762C21.5366 34.9902 21.5506 35.0042 21.5786 35.0042H21.5926L22.3205 34.7942C23.0205 34.5982 23.7205 34.3602 24.3924 34.0802C25.0644 33.8002 25.7224 33.4782 26.3524 33.1282L27.0103 32.7502C27.0383 32.7363 27.0383 32.7083 27.0383 32.6803L22.3485 21.3687Z" fill="#231942"/>
  <path d="M33.1422 8.67115L32.7642 8.01318C32.7502 7.98518 32.7222 7.98518 32.6942 7.98518L19.5907 13.417C19.3247 13.529 19.0307 13.403 18.9327 13.137L13.5009 0.0334924C13.4869 0.00549346 13.4589 -0.0085077 13.4309 0.00549175L12.7029 0.215484C12.003 0.411476 11.303 0.649467 10.631 0.929456C9.95906 1.20945 9.30108 1.53143 8.67111 1.88142L8.01313 2.2594C7.98513 2.2734 7.98513 2.3014 7.98513 2.3294L13.4169 15.4329C14.4109 17.8408 16.7348 19.4087 19.3527 19.4227C19.3947 19.4227 19.4227 19.4227 19.4647 19.4227C20.2907 19.4087 21.1026 19.2547 21.8866 18.9328L34.9901 13.501C35.0181 13.487 35.0321 13.459 35.0181 13.431L34.8081 12.703C34.6121 12.003 34.3741 11.303 34.0941 10.6311C33.8281 9.9591 33.5061 9.30113 33.1422 8.67115Z" fill="#231942"/>
</svg>