<svg width="25" height="24" viewBox="0 0 25 24" fill="none" xmlns="http://www.w3.org/2000/svg">
<path d="M19.5 21C20.0305 21.0001 20.5393 20.7895 20.9144 20.4144C21.2895 20.0393 21.5001 19.5305 21.5 19" stroke="#5E548E" stroke-width="1.5" stroke-linecap="round" stroke-linejoin="round"/>
<path d="M21.5 5C21.5001 4.46952 21.2895 3.96073 20.9144 3.58563C20.5393 3.21052 20.0305 2.99985 19.5 3" stroke="#5E548E" stroke-width="1.5" stroke-linecap="round" stroke-linejoin="round"/>
<path d="M21.5 10.3301V8.33008" stroke="#5E548E" stroke-width="1.5" stroke-linecap="round" stroke-linejoin="round"/>
<path d="M11.5 3H6.5C4.84315 3 3.5 4.34315 3.5 6V18C3.5 19.6569 4.84315 21 6.5 21H11.5" stroke="#5E548E" stroke-width="1.5" stroke-linecap="round" stroke-linejoin="round"/>
<path d="M14.5 12H10.5" stroke="#5E548E" stroke-width="1.5" stroke-linecap="round" stroke-linejoin="round"/>
<path d="M12.5 10V14" stroke="#5E548E" stroke-width="1.5" stroke-linecap="round" stroke-linejoin="round"/>
<path d="M21.5 15.6699V13.6699" stroke="#5E548E" stroke-width="1.5" stroke-linecap="round" stroke-linejoin="round"/>
<path d="M16.5 3H14.5" stroke="#5E548E" stroke-width="1.5" stroke-linecap="round" stroke-linejoin="round"/>
<path d="M16.5 21H14.5" stroke="#5E548E" stroke-width="1.5" stroke-linecap="round" stroke-linejoin="round"/>
</svg>
