<svg xmlns="http://www.w3.org/2000/svg" width="51" height="51" viewBox="0 0 51 51" fill="none">
<path d="M16.4472 23.9668L0.0478437 30.7265C0.00784529 30.7465 -0.0121533 30.7865 0.0078459 30.8265L0.307834 31.8665C0.587823 32.8664 0.927809 33.8664 1.32779 34.8264C1.72778 35.7863 2.18776 36.7263 2.68774 37.6263L3.22772 38.5662C3.24772 38.5862 3.26772 38.6062 3.28772 38.6062H3.30772L19.6871 31.8465C19.7071 31.8465 19.7271 31.8265 19.7271 31.8065C19.7271 31.7865 19.7271 31.7665 19.7271 31.7465L16.5272 24.0068C16.5272 23.9668 16.4872 23.9668 16.4472 23.9668Z" fill="#231942"/>
<path d="M31.9266 30.5264C31.9066 30.4864 31.8666 30.4664 31.8266 30.4864L24.0869 33.6862C24.0669 33.6862 24.0469 33.7062 24.0469 33.7262C24.0469 33.7462 24.0469 33.7662 24.0469 33.7862L30.7466 49.9656C30.7666 49.9856 30.7866 50.0056 30.8266 50.0056H30.8466L31.8866 49.7056C32.8865 49.4256 33.8865 49.0856 34.8465 48.6856C35.8064 48.2857 36.7464 47.8257 37.6463 47.3257L38.5863 46.7857C38.6263 46.7657 38.6263 46.7257 38.6263 46.6857L31.9266 30.5264Z" fill="#231942"/>
<path d="M47.3458 12.3874L46.8058 11.4474C46.7858 11.4074 46.7458 11.4074 46.7058 11.4074L27.9866 19.1671C27.6066 19.3271 27.1866 19.1471 27.0466 18.7671L19.2869 0.0478462C19.2669 0.0078478 19.2269 -0.0121539 19.1869 0.00784536L18.147 0.307834C17.147 0.587823 16.147 0.92781 15.1871 1.32779C14.2271 1.72778 13.2872 2.18776 12.3872 2.68774L11.4472 3.22772C11.4072 3.24772 11.4072 3.28772 11.4072 3.32772L19.1669 22.047C20.5869 25.4868 23.9067 27.7268 27.6466 27.7468C27.7066 27.7468 27.7466 27.7468 27.8066 27.7468C28.9865 27.7268 30.1465 27.5068 31.2664 27.0468L49.9857 19.2871C50.0257 19.2671 50.0457 19.2271 50.0257 19.1871L49.7257 18.1471C49.4457 17.1472 49.1057 16.1472 48.7058 15.1872C48.3258 14.2273 47.8658 13.2873 47.3458 12.3874Z" fill="#231942"/>
</svg>